$MeshFormat
2 0 8
$EndMeshFormat
$Nodes
627
1 251.02032 -38.87833 3266.84102
2 266.41061 -21.22986 4014.78647
3 260.45423 -26.55751 3585.05722
4 255.87796 -0.12759 3507.63720
5 254.22861 -13.20914 3792.91660
6 263.27043 -14.05495 3957.43694
7 259.44701 -7.11510 3812.15579
8 264.22685 -0.70753 3393.45164
9 268.06764 -7.62251 4130.47764
10 257.47524 -19.95717 4102.17654
11 250.84775 -6.20695 3400.84904
12 236.44624 -46.59241 4160.18916
13 241.44810 -39.53405 4362.97813
14 232.43131 -81.54694 2.00000
15 244.09243 -53.08450 3195.10289
16 193.38705 -62.38183 2508.39855
17 242.55273 -5.05100 4206.74521
18 237.52138 -32.56325 3263.89504
19 254.83529 -58.40897 4672.20009
20 187.73976 -79.49964 223.56948
21 192.86305 -70.89241 4084.82438
22 206.44872 -57.83068 3331.51317
23 245.54474 -12.43666 3267.02086
24 239.95137 -18.78506 3678.97141
25 248.72115 -19.57913 3490.54821
26 243.16355 -25.96460 3035.97369
27 247.33424 -32.77798 2768.10279
28 267.58394 -29.73108 3616.13938
29 258.14814 -33.80457 3437.76191
30 231.36578 -39.35141 4818.23971
31 230.26920 -53.49990 4300.61178
32 267.33596 -37.66485 3422.89453
33 248.06906 -45.82894 3030.94478
34 258.84519 -42.39066 4175.39654
35 267.58130 -46.40580 4138.43114
36 222.01625 -60.06363 3856.10174
37 268.17662 -54.59937 4920.16465
38 269.26172 -62.43677 4735.05027
39 238.78218 -60.35723 4441.17331
40 210.27755 -66.02078 4170.88322
41 216.75422 -74.10695 3611.40172
42 230.78869 -67.45324 4298.94535
43 251.80424 -66.14076 4753.77027
44 246.41906 -73.84458 517.97258
45 257.03026 -50.54469 4201.88260
46 252.27121 -26.71489 3170.54413
47 276.84005 29.40164 2.00000
48 223.03282 -16.45513 4224.14938
49 173.52235 -34.73457 145.98817
50 211.52317 0.53766 4445.79475
51 205.27058 -4.68626 4456.88224
52 228.96100 -10.13046 4062.59107
53 213.13755 -6.98583 4605.67944
54 220.99283 -8.65911 3980.32847
55 219.04941 -0.81209 4507.61442
56 226.71264 -2.31123 4477.41621
57 234.52178 -3.73249 4535.79626
58 187.02169 -26.46427 5278.80268
59 216.67187 -22.56730 4543.34328
60 184.27449 -33.76316 5454.61327
61 192.95993 -38.18031 4997.82061
62 183.82223 -2.45242 4971.84700
63 197.72871 -1.63271 5177.80049
64 191.10443 -6.24734 5712.93382
65 202.75142 -41.71734 4763.29189
66 208.25558 -20.30827 4387.71878
67 184.20830 -10.62610 3687.14866
68 184.39102 -19.09785 2356.45820
69 206.73192 -12.42142 5503.49414
70 198.71113 -9.60257 4174.03367
71 191.77149 -14.31255 4918.54386
72 200.05154 -17.41910 5056.00601
73 193.22693 -21.99968 5453.85418
74 193.81854 -30.37766 5418.45292
75 201.27929 -25.51184 5157.33595
76 202.14587 -33.71402 5233.41296
77 209.78467 -28.34412 4952.32558
78 211.38946 -36.39800 5423.01943
79 237.12574 -11.38133 3524.87967
80 181.34702 -49.26936 4719.87156
81 192.53240 -45.99981 5379.89849
82 192.81459 -54.12768 4747.47184
83 225.30719 -24.20012 3860.59768
84 218.73587 -30.45591 3798.74184
85 228.01545 -31.84942 4110.31783
86 231.38884 -17.79205 4129.55215
87 234.14586 -25.28488 3710.96528
88 221.22926 -38.30113 5202.25527
89 204.00666 -49.73007 5105.23799
90 213.42784 -44.37666 5163.30358
91 224.78133 -46.03578 4765.70890
92 216.70270 -52.28401 3742.06890
93 316.11107 -23.77898 115.00000
94 284.53280 -5.72999 2.00000
95 280.29478 -11.96616 4908.64188
96 280.83043 -18.54008 3103.90750
97 289.31626 -19.87816 1473.36963
98 272.39470 -15.03417 4463.47297
99 274.24719 -23.85092 3147.90778
100 276.09420 -32.52204 3833.89738
101 282.64903 -25.81203 2729.35803
102 276.01645 -6.63139 4082.25202
103 272.33465 -0.13928 2784.89774
104 312.49654 -0.08402 23.09887
105 324.76779 -18.60026 4060.29487
106 318.78406 -14.65293 2.00000
107 319.24676 -6.23135 2.00000
108 326.03596 -10.41469 4630.46196
109 326.55673 -2.31952 4265.25706
110 298.19786 -44.16649 100.69251
111 291.78998 -26.89824 2.00000
112 294.70390 -32.70669 2.00000
113 292.13569 -38.68374 2.00000
114 305.80817 -21.65050 2.00000
115 163.29106 21.82227 2126.63646
116 282.86809 -38.07210 4109.19325
117 291.53463 -51.19556 71.38947
118 275.75323 -41.60463 4377.90387
119 278.40774 -49.73996 4123.45545
120 302.00651 -36.27964 2.00000
121 282.12257 -57.24636 4683.13436
122 297.67901 -57.79423 3567.33099
123 304.54625 -50.04436 968.97182
124 308.82445 -41.27861 5538.14907
125 320.76004 -31.83821 4161.36203
126 285.94180 -32.25818 4200.06587
127 233.68986 27.10176 4141.24781
128 301.12855 -28.40463 2.00000
129 286.47674 -44.74051 214.83081
130 288.30288 -13.01247 2.00000
131 324.82173 -25.63406 4249.12806
132 345.80600 -46.95067 2899.60670
133 349.21074 -39.92241 3480.65832
134 354.08678 -2.29859 4849.45459
135 354.93961 -26.14359 4464.87945
136 354.84507 -10.75915 4780.27451
137 333.29587 -6.08665 5657.14246
138 0.70316 -6.65872 5217.65505
139 340.02494 -1.58314 4671.97947
140 347.27064 -6.15273 3216.83267
141 336.26652 -50.73138 4235.96352
142 356.47063 -34.43242 957.42568
143 344.90998 -74.87524 2.00000
144 356.48648 -47.58847 4028.11147
145 348.98955 -54.14879 3716.81822
146 2.05760 -68.87671 3872.59306
147 353.96554 -61.55437 5244.85311
148 337.75509 -58.80909 4112.62365
149 340.31739 -66.85091 4952.40889
150 320.88354 -70.39363 4047.64591
151 323.64381 -62.31065 5091.65500
152 339.36386 -35.24354 3604.58885
153 355.47984 -18.15129 5039.94131
154 347.55353 -14.47209 3307.31091
155 314.25789 -78.09716 2.00000
156 274.96905 -77.69359 2.00000
157 271.08170 -70.12994 2228.05945
158 296.00819 -71.67672 2.00000
159 287.29215 -64.56014 3730.64686
160 306.45517 -64.41772 2028.22098
161 312.29499 -56.44527 3566.39804
162 325.10923 -53.96069 3606.17353
163 315.93028 -47.92843 5803.01152
164 337.49111 -42.54067 4233.45859
165 326.62836 -45.47225 5178.48383
166 318.04013 -39.22462 5086.45235
167 340.23610 -10.21723 4372.64919
168 332.82887 -14.44192 5165.75787
169 328.67838 -37.68855 4279.45651
170 347.71984 -31.28299 3091.87820
171 347.57173 -22.64697 3560.78276
172 340.17551 -18.54164 4659.15511
173 339.86077 -26.95404 4198.39334
174 332.60733 -22.40048 5572.32898
175 331.27918 -30.51403 3463.61583
176 150.00067 -48.10657 2150.24132
177 176.29449 -20.89179 3079.18839
178 131.93782 -58.20408 4693.09350
179 172.03004 -43.51547 2.00000
180 159.52544 -66.12694 2769.21312
181 156.14187 -0.86643 2020.93595
182 148.89336 -4.43714 1245.48922
183 155.49493 -9.16264 3596.15053
184 177.27913 -65.33991 4407.51306
185 139.76944 -52.58755 2738.15602
186 154.96420 -54.18832 4015.91960
187 161.11084 -46.39440 4907.37641
188 163.30099 -30.58411 1250.06642
189 170.41755 -26.37496 3685.81141
190 102.67391 -58.28710 4509.92706
191 117.72083 -58.83678 4610.25249
192 141.70363 -44.03365 4580.12019
193 146.48225 -61.01901 3972.71168
194 111.54640 -65.84935 291.41643
195 164.59391 -59.48121 4598.71678
196 163.34772 -38.37129 3820.10721
197 152.76984 -41.00324 4940.94893
198 129.76786 -65.27994 572.87823
199 144.52765 -36.23740 2.00000
200 154.25514 -33.53662 4860.68357
201 146.07330 -28.58499 2.00000
202 154.74969 -25.71743 4647.58364
203 154.99410 -17.48411 2830.16768
204 162.39732 -22.17253 1970.70171
205 169.15327 -51.90734 208.84946
206 162.29997 -13.69687 2461.64128
207 169.29791 -17.83857 2660.91177
208 162.70570 -5.38603 3249.66522
209 169.69071 -1.67516 4160.62897
210 169.60685 -9.81372 4481.20090
211 176.82850 -6.13678 5430.64310
212 176.95499 -13.86752 2362.22859
213 144.43996 -70.22569 2.00000
214 168.42159 -73.04933 2.00000
215 179.77817 -57.41874 4804.76316
216 179.44315 -27.04732 2880.29149
217 286.46002 30.72526 5093.54478
218 100.02770 -23.86464 5547.75335
219 119.31895 -27.11524 2.00000
220 103.48583 -31.14036 5026.18287
221 91.67842 -11.41476 4798.30295
222 90.37078 -23.60513 5263.20880
223 94.05777 -30.69058 1559.76685
224 94.08838 -43.92376 2788.81200
225 119.16001 -14.24468 5081.25843
226 125.49534 -40.15804 5116.25240
227 111.85695 -31.23268 5124.59308
228 119.68512 -7.25437 3730.55759
229 114.28142 -19.45108 1270.16157
230 96.05033 -17.39381 5683.56609
231 274.62205 60.06212 165.00000
232 123.52320 -20.20939 2.00000
233 126.37351 -12.46978 72.26350
234 112.16331 -11.32817 4022.96972
235 92.27653 -4.73525 4979.02840
236 99.12809 -9.87408 5392.68347
237 99.59184 -1.47861 1744.22730
238 105.89610 -6.87546 24.13403
239 112.90919 -3.00027 2.00000
240 127.11680 -32.65888 47.03306
241 118.36352 -35.97723 4314.80538
242 98.97573 -37.83767 4578.32328
243 109.17140 -38.62122 4531.57588
244 104.65310 -45.46006 3624.69048
245 117.39829 -45.04234 4201.15630
246 130.70468 -46.23319 4394.27849
247 134.71458 -38.39212 5518.53332
248 136.80152 -30.92416 2.00000
249 133.94433 -10.12216 75.30330
250 127.43052 -4.80244 3305.77154
251 135.06668 -2.21269 331.06251
252 141.50325 -7.40546 2.00000
253 140.29487 -15.51173 44.64342
254 148.05782 -12.58901 4072.74196
255 124.52820 -51.91098 4299.97785
256 110.10622 -51.95625 3416.66505
257 94.58245 -51.47182 3843.92257
258 147.16171 -20.71430 2.00000
259 109.19413 -24.26905 2569.26499
260 51.34676 -42.78306 3288.03288
261 68.63392 -39.66180 4053.76703
262 62.15940 -2.12977 4686.78253
263 59.53563 -37.40550 5160.66857
264 50.60478 -34.49871 3503.41687
265 58.79898 -29.54398 4228.18501
266 68.04307 -32.52594 4548.01890
267 66.30777 -24.62164 4239.36624
268 84.61680 -7.93964 4608.55098
269 84.22203 -29.93732 3806.31120
270 86.79067 -16.32609 4423.18945
271 75.19619 -27.91841 3614.51294
272 57.65656 -21.49176 3520.20106
273 81.22818 -21.83756 4780.58659
274 78.88194 -13.06163 5275.92438
275 73.00960 -19.27279 4255.17722
276 64.78232 -16.62036 3640.34552
277 77.92162 -36.93596 2882.62353
278 88.26421 -37.38051 3746.53803
279 95.43848 -64.64967 278.65047
280 63.60953 -9.18121 3780.79642
281 69.34780 -2.68869 3675.73235
282 310.64147 -31.33155 1556.82190
283 84.11809 -45.24217 3556.15863
284 55.98445 -58.75390 5174.25156
285 61.78927 -45.37352 4782.60596
286 73.65639 -45.68254 3580.03170
287 66.27286 -52.55990 4698.41156
288 80.04161 -52.55741 3996.41262
289 87.16736 -58.73276 4590.13842
290 42.37401 -64.12109 4676.90331
291 53.10304 -50.94389 4544.97950
292 71.56564 -59.67129 4459.34427
293 41.80645 -47.66939 3942.88208
294 41.93626 -55.91733 4767.16341
295 79.23745 -66.52248 333.37206
296 60.33921 -66.55087 1799.34215
297 70.92580 -74.15212 2.00000
298 43.96908 -72.49656 2.00000
299 17.27081 -75.73396 2.00000
300 27.97144 -59.70863 5314.14253
301 24.23901 -67.78972 4034.64531
302 11.46853 -61.71488 4819.06011
303 71.55337 -10.67150 2804.68034
304 50.88871 -1.65322 5103.89377
305 43.95466 -0.11589 2754.55706
306 2.20095 -28.95810 3130.38908
307 34.73720 -19.64505 2.00000
308 2.96848 -21.69887 5053.03524
309 1.49548 64.13629 2378.51752
310 11.47481 1.10879 2.00000
311 55.99382 -6.11103 3241.35767
312 34.87220 -12.43048 2.00000
313 42.15107 -31.08907 3971.81017
314 50.23561 -26.26649 5133.12166
315 42.30008 -22.85246 3194.36204
316 38.83925 -5.78197 2.00000
317 41.92799 -14.39478 2547.88923
318 49.44295 -17.80814 2.00000
319 56.18311 -13.50351 4214.66815
320 33.27682 -35.32480 4078.31237
321 1.36081 -41.28950 4037.80946
322 25.40665 -30.59529 2.00000
323 8.73708 -47.86113 2847.59211
324 41.90086 -39.35637 3529.41543
325 16.46530 -4.11771 2.00000
326 13.15212 -11.86673 1084.36501
327 11.13788 -19.33355 963.05274
328 18.22007 -25.13073 2.00000
329 10.04844 -27.13109 4814.45799
330 6.85899 -34.85122 5234.15358
331 16.34635 -33.07095 2159.42189
332 13.03056 -40.75734 4906.07408
333 23.58780 -38.56403 5240.09493
334 32.06795 -43.46041 5354.32148
335 20.95062 -46.42131 4486.41734
336 30.39014 -51.60636 4414.15409
337 17.14392 -54.12559 3890.46058
338 2.90085 -54.91235 2978.94910
339 47.74356 -8.89135 4435.70374
340 8.16747 -5.99680 4034.90259
341 34.16311 -27.33432 1417.81848
342 282.84149 23.00431 8.24940
343 273.83975 21.78241 1191.46904
344 271.73841 14.22892 2.00000
345 319.94209 0.97796 4364.72253
346 291.83487 23.68501 5571.83204
347 280.37278 0.80527 2.00000
348 276.33218 7.54932 1332.97702
349 279.69901 15.32257 910.30005
350 284.31661 8.33778 2.00000
351 287.99309 16.03518 3285.86982
352 296.39342 16.19466 1789.46162
353 300.73790 23.39542 5953.04454
354 305.46351 30.25778 5615.56156
355 315.14482 28.53723 3243.73426
356 319.06046 20.72344 4690.02588
357 309.80570 22.40855 5320.88281
358 304.96444 15.67010 5514.17235
359 292.36234 8.71743 2.00000
360 300.43098 8.69625 15.36683
361 304.06528 1.37280 2.00000
362 308.77009 7.93656 4465.78689
363 313.60552 14.79236 3395.19363
364 322.62502 13.33230 5676.65287
365 324.06913 26.48491 4841.94259
366 328.64483 18.74320 5163.00494
367 347.90360 19.49128 2.00000
368 325.47518 5.97258 3577.67308
369 332.92616 2.56148 3870.68492
370 342.56676 24.74825 2587.23917
371 344.80934 32.12041 4424.07928
372 353.84876 5.30148 2.00000
373 182.35534 -41.11778 3480.44748
374 352.27680 28.32867 2.00000
375 346.26765 11.02231 2.00000
376 339.35567 7.36813 3918.62905
377 346.65483 2.41844 4979.22462
378 3.93206 -13.79092 5565.32388
379 333.75038 24.21282 5354.16730
380 316.85289 7.50704 4797.37285
381 329.22189 31.25905 4231.52174
382 337.16492 31.69728 5280.34813
383 356.64096 50.00354 66.27563
384 324.90861 58.27579 2564.86711
385 345.26405 70.65824 2239.37670
386 340.87152 62.41896 1366.16811
387 336.69111 53.68283 3902.77109
388 323.92201 42.72605 4107.86294
389 331.08306 38.14169 657.45111
390 334.22439 45.95039 2879.33831
391 346.20991 46.83436 4757.91528
392 340.87762 39.51696 5021.78424
393 299.80523 82.09320 307.52276
394 304.24070 47.05251 2.00000
395 312.80287 52.60875 3947.60633
396 287.95495 74.58509 1067.26393
397 351.34990 79.52499 201.49561
398 324.41809 66.46820 2.00000
399 309.66728 60.55227 2937.93959
400 299.47734 53.99727 2.00000
401 292.64303 60.70536 197.02681
402 285.01258 66.77308 17.00000
403 331.67315 11.16351 5838.98910
404 279.95097 37.20225 2.00000
405 282.72725 45.19008 2.00000
406 290.50671 38.47838 3484.96939
407 296.20168 31.33895 4790.93209
408 301.72940 39.03602 5234.27878
409 313.56743 43.40542 4462.89516
410 311.15615 35.94169 5498.19544
411 350.48375 37.50601 1351.35871
412 357.09722 42.53995 2.00000
413 359.51579 34.43326 2.00000
414 349.63398 56.27352 2120.43133
415 304.13577 68.03664 118.95751
416 293.78983 46.22601 2.00000
417 320.61052 35.34139 3756.55222
418 323.33142 50.05117 4100.57511
419 7.51299 6.34860 2.00000
420 14.06866 51.91873 2.00000
421 3.97083 56.18302 69.61124
422 0.52360 8.45629 2.00000
423 19.00013 29.05158 2.00000
424 16.01590 44.65360 2.00000
425 16.49185 36.95986 2848.40963
426 25.34749 50.36952 2.00000
427 24.72050 33.94393 2834.65824
428 5.85704 47.44290 2.00000
429 7.09788 39.74058 2864.55556
430 25.14232 41.58473 2.00000
431 9.41439 32.05615 2.00000
432 2.37630 0.45866 4316.87046
433 105.20751 -16.27764 5842.67280
434 36.57829 3.56054 2.00000
435 41.99019 8.47654 2.00000
436 56.88600 2.65601 4753.57946
437 57.46056 10.83901 4793.20601
438 49.01849 12.15220 2339.38538
439 42.52140 16.56630 20.98716
440 32.73019 35.39557 488.28236
441 29.03671 26.98210 2.00000
442 51.84614 18.27783 2.00000
443 54.57656 25.52132 44.83114
444 49.90860 5.62639 3410.32276
445 34.21562 43.61249 2167.19032
446 18.43430 58.63929 230.58322
447 23.71950 65.46227 29.37120
448 35.99531 71.04877 185.68432
449 10.43608 72.36277 2180.27937
450 85.41984 -0.04347 4520.81702
451 60.48795 18.57489 3832.08909
452 63.46993 26.30677 2.00000
453 69.15695 19.37765 2626.43928
454 64.36528 4.84229 3688.90235
455 66.40457 11.89827 4266.87650
456 72.44796 4.64066 2636.54635
457 80.29244 5.55018 3919.35096
458 89.11631 7.85713 3603.16607
459 74.81886 12.40555 40.21033
460 83.30863 13.30350 3306.18496
461 86.50182 20.33940 2.00000
462 77.72096 19.88464 2.00000
463 35.87923 78.75433 235.76031
464 77.76970 78.50344 134.38726
465 84.98164 69.50389 2.00000
466 65.24833 64.27644 2.00000
467 59.28326 71.77182 152.19067
468 77.40551 -3.43002 4999.17549
469 72.24631 26.93083 2.00000
470 44.20222 87.27407 3882.14216
471 238.96299 84.19512 2655.10365
472 214.91266 77.14729 3775.33721
473 178.26540 82.57739 2406.14363
474 254.65317 76.88457 195.44455
475 248.43142 69.35547 2.00000
476 268.29891 68.93163 2.00000
477 228.07272 70.87924 55.78012
478 205.68583 68.64982 2.00000
479 230.39301 56.59250 2.00000
480 219.32342 62.98181 2.00000
481 226.16834 48.95286 1393.27053
482 216.14694 55.09908 3746.76561
483 204.81905 51.22838 4742.04138
484 193.93317 53.26220 1052.89729
485 211.00673 31.28842 5381.28076
486 184.87709 57.42116 3352.80553
487 194.37849 46.04070 5377.00974
488 186.61133 73.77278 190.86688
489 187.17729 65.21703 2.00000
490 183.73105 49.05369 5398.14622
491 204.06360 11.38715 5058.63070
492 214.72638 46.82191 4734.48631
493 212.80101 39.01156 4946.95352
494 204.15000 43.13474 5604.78878
495 194.71240 38.48620 5467.31435
496 204.00406 3.09692 4712.17514
497 204.24422 18.88552 1768.62690
498 203.44602 35.22111 5729.75699
499 203.50119 27.04739 5438.09117
500 195.43817 30.68816 5823.86977
501 196.39993 22.68231 4361.38629
502 184.95723 41.26838 5831.43079
503 186.44065 33.65942 5716.89711
504 179.05397 28.45163 5388.28377
505 188.20452 26.06865 3135.21401
506 181.74618 21.33520 5306.60010
507 196.93009 14.71435 5635.52482
508 189.57760 18.15109 5208.86486
509 183.37849 13.36524 5100.32248
510 183.52971 5.54027 5403.08479
511 190.31514 9.99180 3994.00807
512 197.26991 6.59054 4333.66331
513 190.62439 1.88466 5137.65550
514 202.10768 59.95608 2.00000
515 250.37736 14.55816 3999.59202
516 219.22870 20.47395 5380.29645
517 252.90040 7.24269 3853.52676
518 230.05709 34.59405 4967.70851
519 220.31539 34.07989 5095.93128
520 242.96466 16.98807 3397.24564
521 256.32576 19.51188 2.00000
522 227.58374 19.95147 5038.99240
523 225.24984 27.31970 4541.14002
524 153.72956 24.24515 4139.54014
525 241.68850 25.48070 3894.34881
526 249.37724 22.46900 2800.26698
527 258.29942 13.47334 3372.49261
528 264.89279 12.22733 4119.98451
529 268.64282 6.26059 3737.25903
530 264.79323 19.91419 2673.30611
531 258.05223 25.92332 2.00000
532 267.31782 27.55268 784.75896
533 259.64079 32.76369 2.00000
534 269.80898 35.09072 2.00000
535 240.38366 34.27464 100.02815
536 233.79586 41.95710 3134.71905
537 238.17903 49.82842 2.00000
538 223.21428 41.28081 4153.89440
539 209.90448 7.68319 4997.32250
540 210.98254 22.93093 5151.72817
541 212.56477 14.90198 5271.33162
542 235.44009 18.87552 4196.29077
543 229.70360 12.17237 4892.98789
544 247.75160 1.16452 3927.48189
545 221.58338 13.40882 4793.95523
546 216.87343 7.12957 4911.79238
547 244.99881 8.82202 4159.52827
548 224.45652 5.62248 4540.82513
549 237.39440 10.65934 4417.55042
550 232.10254 4.16463 4435.79340
551 239.81271 2.63047 4267.85676
552 249.61742 29.99410 2.00000
553 260.61534 6.00501 3455.57623
554 217.37453 27.28057 4884.92814
555 93.05920 2.16959 4315.40274
556 132.38038 74.41545 13.28926
557 158.68593 75.88749 45.00000
558 121.69262 81.49517 3552.76013
559 130.80423 46.69853 2.00000
560 109.23536 17.14255 116.70209
561 171.61258 60.23852 2037.09563
562 100.64766 15.14148 2.00000
563 128.61631 38.74961 1792.11308
564 95.49525 22.56593 2.00000
565 92.46126 14.55562 2861.71182
566 106.07631 1.94540 60.24983
567 107.04456 9.65201 24.06579
568 113.95637 4.84060 67.22832
569 115.44905 12.43608 4392.69726
570 168.41689 68.14989 2.00000
571 156.09472 61.58911 2.00000
572 106.20367 73.67848 2.00000
573 134.26008 54.31152 2.00000
574 120.27315 44.33282 2.00000
575 126.86010 31.07298 88.30218
576 148.00708 54.76034 825.07549
577 119.23127 36.34947 2.00000
578 110.56771 25.17611 2.00000
579 118.38480 28.39929 2.00000
580 117.14190 20.35426 415.74687
581 138.08418 40.55894 3315.56649
582 46.03592 63.74641 2.00000
583 143.87865 34.40975 4361.55786
584 176.59972 16.49419 4206.65973
585 150.62786 11.26336 5954.19184
586 139.39339 20.59790 4502.27882
587 176.35007 9.48646 5104.44221
588 149.71893 3.58307 5488.65191
589 120.72886 0.19136 828.57036
590 151.95083 32.29745 5776.58919
591 148.49177 40.63819 5383.04171
592 135.99836 32.50784 4653.27391
593 133.98285 25.78588 4158.70229
594 142.37655 47.73726 2.00000
595 125.26305 23.33739 6671.61236
596 131.49179 18.16304 6012.00089
597 161.29327 53.91142 3434.79106
598 123.49815 15.43985 2947.04209
599 122.05108 7.75627 891.69933
600 130.08856 10.59001 5800.61634
601 173.26264 52.01661 3215.81449
602 174.83224 43.67065 5787.64096
603 169.45128 15.11722 5526.53121
604 172.53775 22.65444 5618.78299
605 138.33560 13.50935 4719.51270
606 146.91470 17.93626 3395.76704
607 338.65822 16.55718 3746.71820
608 154.03541 47.24349 2127.50489
609 164.72345 45.71269 6142.65719
610 158.01172 38.94306 5501.26783
611 160.69582 30.36650 5767.29663
612 167.24462 37.39118 5301.55807
613 169.49782 29.47335 5747.78162
614 176.77675 35.79691 4680.04631
615 156.09972 16.57529 5887.39688
616 156.75892 7.59247 4639.73535
617 162.92203 12.22548 5318.64311
618 143.77539 9.18649 4759.50009
619 128.59439 2.87407 1387.13303
620 136.31930 5.69625 4576.20787
621 142.51753 0.75716 2588.97636
622 163.01902 3.12937 4330.32179
623 169.52628 6.67764 4464.24634
624 176.57854 1.76907 4256.96075
625 144.29316 26.68195 4869.87509
626 98.45737 7.55506 53.93050
627 214.84008 -14.71560 2567.01482
$EndNodes
$Elements
1143
1 2 3 0 1 0 34 29 1
2 2 3 0 2 0 13 33 1
3 2 3 0 3 0 33 34 1
4 2 3 0 4 0 29 27 1
5 2 3 0 5 0 27 13 1
6 2 3 0 6 0 28 99 2
7 2 3 0 7 0 3 28 2
8 2 3 0 8 0 6 2 98
9 2 3 0 9 0 6 10 2
10 2 3 0 10 0 2 99 98
11 2 3 0 11 0 10 3 2
12 2 3 0 12 0 10 46 3
13 2 3 0 13 0 29 28 3
14 2 3 0 14 0 46 29 3
15 2 3 0 15 0 7 8 4
16 2 3 0 16 0 11 7 4
17 2 3 0 17 0 544 4 517
18 2 3 0 18 0 544 11 4
19 2 3 0 19 0 4 553 517
20 2 3 0 20 0 8 553 4
21 2 3 0 21 0 11 23 5
22 2 3 0 22 0 10 6 5
23 2 3 0 23 0 25 10 5
24 2 3 0 24 0 7 11 5
25 2 3 0 25 0 6 7 5
26 2 3 0 26 0 23 25 5
27 2 3 0 27 0 9 7 6
28 2 3 0 28 0 9 6 98
29 2 3 0 29 0 9 8 7
30 2 3 0 30 0 9 103 8
31 2 3 0 31 0 553 8 529
32 2 3 0 32 0 8 103 529
33 2 3 0 33 0 102 9 98
34 2 3 0 34 0 102 103 9
35 2 3 0 35 0 25 46 10
36 2 3 0 36 0 17 23 11
37 2 3 0 37 0 544 17 11
38 2 3 0 38 0 15 33 12
39 2 3 0 39 0 91 31 12
40 2 3 0 40 0 30 91 12
41 2 3 0 41 0 31 15 12
42 2 3 0 42 0 13 30 12
43 2 3 0 43 0 33 13 12
44 2 3 0 44 0 18 30 13
45 2 3 0 45 0 27 18 13
46 2 3 0 46 0 41 20 14
47 2 3 0 47 0 217 404 47
48 2 3 0 48 0 44 41 14
49 2 3 0 49 0 534 532 47
50 2 3 0 50 0 47 532 343
51 2 3 0 51 0 156 44 14
52 2 3 0 52 0 45 33 15
53 2 3 0 53 0 31 39 15
54 2 3 0 54 0 39 19 15
55 2 3 0 55 0 19 45 15
56 2 3 0 56 0 21 16 184
57 2 3 0 57 0 82 215 16
58 2 3 0 58 0 21 40 16
59 2 3 0 59 0 40 22 16
60 2 3 0 60 0 16 215 184
61 2 3 0 61 0 22 82 16
62 2 3 0 62 0 551 17 544
63 2 3 0 63 0 79 17 57
64 2 3 0 64 0 57 17 551
65 2 3 0 65 0 79 23 17
66 2 3 0 66 0 26 87 18
67 2 3 0 67 0 85 30 18
68 2 3 0 68 0 27 26 18
69 2 3 0 69 0 87 85 18
70 2 3 0 70 0 38 37 19
71 2 3 0 71 0 39 43 19
72 2 3 0 72 0 37 45 19
73 2 3 0 73 0 43 38 19
74 2 3 0 74 0 41 21 20
75 2 3 0 75 0 20 21 214
76 2 3 0 76 0 214 21 184
77 2 3 0 77 0 41 40 21
78 2 3 0 78 0 36 92 22
79 2 3 0 79 0 40 36 22
80 2 3 0 80 0 92 89 22
81 2 3 0 81 0 22 89 82
82 2 3 0 82 0 24 25 23
83 2 3 0 83 0 24 23 79
84 2 3 0 84 0 26 25 24
85 2 3 0 85 0 86 24 79
86 2 3 0 86 0 26 24 87
87 2 3 0 87 0 87 24 86
88 2 3 0 88 0 26 46 25
89 2 3 0 89 0 27 46 26
90 2 3 0 90 0 29 46 27
91 2 3 0 91 0 28 100 99
92 2 3 0 92 0 28 32 100
93 2 3 0 93 0 29 32 28
94 2 3 0 94 0 34 32 29
95 2 3 0 95 0 88 30 85
96 2 3 0 96 0 88 91 30
97 2 3 0 97 0 92 31 91
98 2 3 0 98 0 36 39 31
99 2 3 0 99 0 92 36 31
100 2 3 0 100 0 32 35 118
101 2 3 0 101 0 34 35 32
102 2 3 0 102 0 32 118 100
103 2 3 0 103 0 45 34 33
104 2 3 0 104 0 45 35 34
105 2 3 0 105 0 45 37 35
106 2 3 0 106 0 37 119 35
107 2 3 0 107 0 35 119 118
108 2 3 0 108 0 42 39 36
109 2 3 0 109 0 40 42 36
110 2 3 0 110 0 37 121 119
111 2 3 0 111 0 38 121 37
112 2 3 0 112 0 159 121 38
113 2 3 0 113 0 43 157 38
114 2 3 0 114 0 157 159 38
115 2 3 0 115 0 42 43 39
116 2 3 0 116 0 41 42 40
117 2 3 0 117 0 44 42 41
118 2 3 0 118 0 44 43 42
119 2 3 0 119 0 44 157 43
120 2 3 0 120 0 156 157 44
121 2 3 0 121 0 47 343 342
122 2 3 0 122 0 404 534 47
123 2 3 0 123 0 217 47 342
124 2 3 0 124 0 59 83 48
125 2 3 0 125 0 237 566 626
126 2 3 0 126 0 86 52 48
127 2 3 0 127 0 83 86 48
128 2 3 0 128 0 196 179 49
129 2 3 0 129 0 52 54 48
130 2 3 0 130 0 566 567 626
131 2 3 0 131 0 216 189 49
132 2 3 0 132 0 188 196 49
133 2 3 0 133 0 189 188 49
134 2 3 0 134 0 496 50 539
135 2 3 0 135 0 53 55 50
136 2 3 0 136 0 55 546 50
137 2 3 0 137 0 496 51 50
138 2 3 0 138 0 51 53 50
139 2 3 0 139 0 50 546 539
140 2 3 0 140 0 567 562 626
141 2 3 0 141 0 627 69 66
142 2 3 0 142 0 237 626 555
143 2 3 0 143 0 565 458 626
144 2 3 0 144 0 496 63 51
145 2 3 0 145 0 70 69 51
146 2 3 0 146 0 69 53 51
147 2 3 0 147 0 63 70 51
148 2 3 0 148 0 57 56 52
149 2 3 0 149 0 56 54 52
150 2 3 0 150 0 79 57 52
151 2 3 0 151 0 86 79 52
152 2 3 0 152 0 54 55 53
153 2 3 0 153 0 56 55 54
154 2 3 0 154 0 55 548 546
155 2 3 0 155 0 56 548 55
156 2 3 0 156 0 56 550 548
157 2 3 0 157 0 57 550 56
158 2 3 0 158 0 57 551 550
159 2 3 0 159 0 73 68 58
160 2 3 0 160 0 74 73 58
161 2 3 0 161 0 216 60 58
162 2 3 0 162 0 60 74 58
163 2 3 0 163 0 68 216 58
164 2 3 0 164 0 60 216 49
165 2 3 0 165 0 84 83 59
166 2 3 0 166 0 66 77 59
167 2 3 0 167 0 77 84 59
168 2 3 0 168 0 61 74 60
169 2 3 0 169 0 81 65 61
170 2 3 0 170 0 76 74 61
171 2 3 0 171 0 65 76 61
172 2 3 0 172 0 64 513 62
173 2 3 0 173 0 62 513 510
174 2 3 0 174 0 624 211 62
175 2 3 0 175 0 67 64 62
176 2 3 0 176 0 624 62 510
177 2 3 0 177 0 211 67 62
178 2 3 0 178 0 64 63 513
179 2 3 0 179 0 64 70 63
180 2 3 0 180 0 513 63 512
181 2 3 0 181 0 512 63 496
182 2 3 0 182 0 71 70 64
183 2 3 0 183 0 67 71 64
184 2 3 0 184 0 78 76 65
185 2 3 0 185 0 81 89 65
186 2 3 0 186 0 89 90 65
187 2 3 0 187 0 90 78 65
188 2 3 0 188 0 69 72 66
189 2 3 0 189 0 75 77 66
190 2 3 0 190 0 72 75 66
191 2 3 0 191 0 68 71 67
192 2 3 0 192 0 212 67 211
193 2 3 0 193 0 68 67 212
194 2 3 0 194 0 73 71 68
195 2 3 0 195 0 216 68 177
196 2 3 0 196 0 68 212 177
197 2 3 0 197 0 70 72 69
198 2 3 0 198 0 71 72 70
199 2 3 0 199 0 73 72 71
200 2 3 0 200 0 73 75 72
201 2 3 0 201 0 74 75 73
202 2 3 0 202 0 76 75 74
203 2 3 0 203 0 76 77 75
204 2 3 0 204 0 78 77 76
205 2 3 0 205 0 78 84 77
206 2 3 0 206 0 88 84 78
207 2 3 0 207 0 90 88 78
208 2 3 0 208 0 205 80 179
209 2 3 0 209 0 215 80 205
210 2 3 0 210 0 82 80 215
211 2 3 0 211 0 82 81 80
212 2 3 0 212 0 82 89 81
213 2 3 0 213 0 85 87 83
214 2 3 0 214 0 84 85 83
215 2 3 0 215 0 87 86 83
216 2 3 0 216 0 88 85 84
217 2 3 0 217 0 90 91 88
218 2 3 0 218 0 92 90 89
219 2 3 0 219 0 92 91 90
220 2 3 0 220 0 542 127 522
221 2 3 0 221 0 127 523 522
222 2 3 0 222 0 615 617 115
223 2 3 0 223 0 131 105 93
224 2 3 0 224 0 125 131 93
225 2 3 0 225 0 615 115 524
226 2 3 0 226 0 105 106 93
227 2 3 0 227 0 525 535 127
228 2 3 0 228 0 95 130 94
229 2 3 0 229 0 347 102 94
230 2 3 0 230 0 102 95 94
231 2 3 0 231 0 102 98 95
232 2 3 0 232 0 96 130 95
233 2 3 0 233 0 98 96 95
234 2 3 0 234 0 99 101 96
235 2 3 0 235 0 98 99 96
236 2 3 0 236 0 101 97 96
237 2 3 0 237 0 97 130 96
238 2 3 0 238 0 101 111 97
239 2 3 0 239 0 127 535 518
240 2 3 0 240 0 100 101 99
241 2 3 0 241 0 118 116 100
242 2 3 0 242 0 126 101 100
243 2 3 0 243 0 116 126 100
244 2 3 0 244 0 126 111 101
245 2 3 0 245 0 523 127 518
246 2 3 0 246 0 542 525 127
247 2 3 0 247 0 347 103 102
248 2 3 0 248 0 347 348 103
249 2 3 0 249 0 103 348 529
250 2 3 0 250 0 380 104 345
251 2 3 0 251 0 104 107 345
252 2 3 0 252 0 380 362 104
253 2 3 0 253 0 104 362 361
254 2 3 0 254 0 108 106 105
255 2 3 0 255 0 131 174 105
256 2 3 0 256 0 168 108 105
257 2 3 0 257 0 174 168 105
258 2 3 0 258 0 108 107 106
259 2 3 0 259 0 107 109 345
260 2 3 0 260 0 108 109 107
261 2 3 0 261 0 137 109 108
262 2 3 0 262 0 168 137 108
263 2 3 0 263 0 137 369 109
264 2 3 0 264 0 109 368 345
265 2 3 0 265 0 109 369 368
266 2 3 0 266 0 117 123 110
267 2 3 0 267 0 113 129 110
268 2 3 0 268 0 120 113 110
269 2 3 0 269 0 123 124 110
270 2 3 0 270 0 124 120 110
271 2 3 0 271 0 129 117 110
272 2 3 0 272 0 112 128 111
273 2 3 0 273 0 126 112 111
274 2 3 0 274 0 126 113 112
275 2 3 0 275 0 120 128 112
276 2 3 0 276 0 113 120 112
277 2 3 0 277 0 116 129 113
278 2 3 0 278 0 126 116 113
279 2 3 0 279 0 604 115 603
280 2 3 0 280 0 613 611 115
281 2 3 0 281 0 115 617 603
282 2 3 0 282 0 118 129 116
283 2 3 0 283 0 122 123 117
284 2 3 0 284 0 121 122 117
285 2 3 0 285 0 129 119 117
286 2 3 0 286 0 119 121 117
287 2 3 0 287 0 119 129 118
288 2 3 0 288 0 604 613 115
289 2 3 0 289 0 159 122 121
290 2 3 0 290 0 161 122 160
291 2 3 0 291 0 161 123 122
292 2 3 0 292 0 160 122 159
293 2 3 0 293 0 163 124 123
294 2 3 0 294 0 161 163 123
295 2 3 0 295 0 611 524 115
296 2 3 0 296 0 166 124 163
297 2 3 0 297 0 131 125 175
298 2 3 0 298 0 169 125 166
299 2 3 0 299 0 175 125 169
300 2 3 0 300 0 131 175 174
301 2 3 0 301 0 133 164 132
302 2 3 0 302 0 164 141 132
303 2 3 0 303 0 145 144 132
304 2 3 0 304 0 141 145 132
305 2 3 0 305 0 144 133 132
306 2 3 0 306 0 142 170 133
307 2 3 0 307 0 170 152 133
308 2 3 0 308 0 152 164 133
309 2 3 0 309 0 321 142 133
310 2 3 0 310 0 144 321 133
311 2 3 0 311 0 140 136 134
312 2 3 0 312 0 136 138 134
313 2 3 0 313 0 138 432 134
314 2 3 0 314 0 377 140 134
315 2 3 0 315 0 372 377 134
316 2 3 0 316 0 432 372 134
317 2 3 0 317 0 308 135 306
318 2 3 0 318 0 170 142 135
319 2 3 0 319 0 153 171 135
320 2 3 0 320 0 135 142 306
321 2 3 0 321 0 171 170 135
322 2 3 0 322 0 308 153 135
323 2 3 0 323 0 414 421 309
324 2 3 0 324 0 386 414 309
325 2 3 0 325 0 154 153 136
326 2 3 0 326 0 140 154 136
327 2 3 0 327 0 137 139 369
328 2 3 0 328 0 167 139 137
329 2 3 0 329 0 168 167 137
330 2 3 0 330 0 340 432 138
331 2 3 0 331 0 385 386 309
332 2 3 0 332 0 167 140 139
333 2 3 0 333 0 139 377 376
334 2 3 0 334 0 139 376 369
335 2 3 0 335 0 139 140 377
336 2 3 0 336 0 167 154 140
337 2 3 0 337 0 148 145 141
338 2 3 0 338 0 162 148 141
339 2 3 0 339 0 165 162 141
340 2 3 0 340 0 164 165 141
341 2 3 0 341 0 142 330 306
342 2 3 0 342 0 321 330 142
343 2 3 0 343 0 146 149 143
344 2 3 0 344 0 299 146 143
345 2 3 0 345 0 149 150 143
346 2 3 0 346 0 150 155 143
347 2 3 0 347 0 145 338 144
348 2 3 0 348 0 144 338 323
349 2 3 0 349 0 144 323 321
350 2 3 0 350 0 148 147 145
351 2 3 0 351 0 147 338 145
352 2 3 0 352 0 147 146 302
353 2 3 0 353 0 301 146 299
354 2 3 0 354 0 147 149 146
355 2 3 0 355 0 302 146 301
356 2 3 0 356 0 148 149 147
357 2 3 0 357 0 147 302 338
358 2 3 0 358 0 162 151 148
359 2 3 0 359 0 151 149 148
360 2 3 0 360 0 151 150 149
361 2 3 0 361 0 158 155 150
362 2 3 0 362 0 151 160 150
363 2 3 0 363 0 160 158 150
364 2 3 0 364 0 161 160 151
365 2 3 0 365 0 162 161 151
366 2 3 0 366 0 170 173 152
367 2 3 0 367 0 173 175 152
368 2 3 0 368 0 175 169 152
369 2 3 0 369 0 169 164 152
370 2 3 0 370 0 449 385 309
371 2 3 0 371 0 154 171 153
372 2 3 0 372 0 172 171 154
373 2 3 0 373 0 167 172 154
374 2 3 0 374 0 158 156 155
375 2 3 0 375 0 158 157 156
376 2 3 0 376 0 158 159 157
377 2 3 0 377 0 160 159 158
378 2 3 0 378 0 162 163 161
379 2 3 0 379 0 165 163 162
380 2 3 0 380 0 165 166 163
381 2 3 0 381 0 169 165 164
382 2 3 0 382 0 169 166 165
383 2 3 0 383 0 168 172 167
384 2 3 0 384 0 174 172 168
385 2 3 0 385 0 171 173 170
386 2 3 0 386 0 172 173 171
387 2 3 0 387 0 174 173 172
388 2 3 0 388 0 174 175 173
389 2 3 0 389 0 185 186 176
390 2 3 0 390 0 192 185 176
391 2 3 0 391 0 186 187 176
392 2 3 0 392 0 187 197 176
393 2 3 0 393 0 197 192 176
394 2 3 0 394 0 212 207 177
395 2 3 0 395 0 207 189 177
396 2 3 0 396 0 189 216 177
397 2 3 0 397 0 191 198 178
398 2 3 0 398 0 198 193 178
399 2 3 0 399 0 193 185 178
400 2 3 0 400 0 185 255 178
401 2 3 0 401 0 255 191 178
402 2 3 0 402 0 196 187 179
403 2 3 0 403 0 187 205 179
404 2 3 0 404 0 213 214 180
405 2 3 0 405 0 195 193 180
406 2 3 0 406 0 214 184 180
407 2 3 0 407 0 193 213 180
408 2 3 0 408 0 184 195 180
409 2 3 0 409 0 208 622 181
410 2 3 0 410 0 181 616 588
411 2 3 0 411 0 182 181 588
412 2 3 0 412 0 182 183 181
413 2 3 0 413 0 622 616 181
414 2 3 0 414 0 183 208 181
415 2 3 0 415 0 621 182 588
416 2 3 0 416 0 254 182 252
417 2 3 0 417 0 254 183 182
418 2 3 0 418 0 252 182 621
419 2 3 0 419 0 206 208 183
420 2 3 0 420 0 254 203 183
421 2 3 0 421 0 203 206 183
422 2 3 0 422 0 215 195 184
423 2 3 0 423 0 255 185 246
424 2 3 0 424 0 185 192 246
425 2 3 0 425 0 193 186 185
426 2 3 0 426 0 193 195 186
427 2 3 0 427 0 195 205 186
428 2 3 0 428 0 205 187 186
429 2 3 0 429 0 196 197 187
430 2 3 0 430 0 200 196 188
431 2 3 0 431 0 189 204 188
432 2 3 0 432 0 202 200 188
433 2 3 0 433 0 204 202 188
434 2 3 0 434 0 207 204 189
435 2 3 0 435 0 289 190 257
436 2 3 0 436 0 194 190 279
437 2 3 0 437 0 190 289 279
438 2 3 0 438 0 257 190 256
439 2 3 0 439 0 190 191 256
440 2 3 0 440 0 194 191 190
441 2 3 0 441 0 194 198 191
442 2 3 0 442 0 256 191 255
443 2 3 0 443 0 192 247 246
444 2 3 0 444 0 192 199 247
445 2 3 0 445 0 197 199 192
446 2 3 0 446 0 198 213 193
447 2 3 0 447 0 215 205 195
448 2 3 0 448 0 200 197 196
449 2 3 0 449 0 200 199 197
450 2 3 0 450 0 199 248 247
451 2 3 0 451 0 200 201 199
452 2 3 0 452 0 199 201 248
453 2 3 0 453 0 202 201 200
454 2 3 0 454 0 202 258 201
455 2 3 0 455 0 204 203 202
456 2 3 0 456 0 202 203 258
457 2 3 0 457 0 258 203 254
458 2 3 0 458 0 204 206 203
459 2 3 0 459 0 207 206 204
460 2 3 0 460 0 210 208 206
461 2 3 0 461 0 207 210 206
462 2 3 0 462 0 212 210 207
463 2 3 0 463 0 210 209 208
464 2 3 0 464 0 208 209 622
465 2 3 0 465 0 210 211 209
466 2 3 0 466 0 209 211 624
467 2 3 0 467 0 209 623 622
468 2 3 0 468 0 209 624 623
469 2 3 0 469 0 212 211 210
470 2 3 0 470 0 407 406 217
471 2 3 0 471 0 407 217 346
472 2 3 0 472 0 346 217 342
473 2 3 0 473 0 223 220 218
474 2 3 0 474 0 230 222 218
475 2 3 0 475 0 222 223 218
476 2 3 0 476 0 220 259 218
477 2 3 0 477 0 232 229 219
478 2 3 0 478 0 229 259 219
479 2 3 0 479 0 241 240 219
480 2 3 0 480 0 227 241 219
481 2 3 0 481 0 259 227 219
482 2 3 0 482 0 223 242 220
483 2 3 0 483 0 242 243 220
484 2 3 0 484 0 227 259 220
485 2 3 0 485 0 243 227 220
486 2 3 0 486 0 236 235 221
487 2 3 0 487 0 268 270 221
488 2 3 0 488 0 270 230 221
489 2 3 0 489 0 230 236 221
490 2 3 0 490 0 235 268 221
491 2 3 0 491 0 230 270 222
492 2 3 0 492 0 270 273 222
493 2 3 0 493 0 269 223 222
494 2 3 0 494 0 273 269 222
495 2 3 0 495 0 278 242 223
496 2 3 0 496 0 278 223 269
497 2 3 0 497 0 283 257 224
498 2 3 0 498 0 244 242 224
499 2 3 0 499 0 257 244 224
500 2 3 0 500 0 283 224 278
501 2 3 0 501 0 224 242 278
502 2 3 0 502 0 234 229 225
503 2 3 0 503 0 229 232 225
504 2 3 0 504 0 233 228 225
505 2 3 0 505 0 232 233 225
506 2 3 0 506 0 228 234 225
507 2 3 0 507 0 241 245 226
508 2 3 0 508 0 246 247 226
509 2 3 0 509 0 247 240 226
510 2 3 0 510 0 240 241 226
511 2 3 0 511 0 245 246 226
512 2 3 0 512 0 243 241 227
513 2 3 0 513 0 589 239 228
514 2 3 0 514 0 239 234 228
515 2 3 0 515 0 233 250 228
516 2 3 0 516 0 250 589 228
517 2 3 0 517 0 406 404 217
518 2 3 0 518 0 476 231 402
519 2 3 0 519 0 402 231 401
520 2 3 0 520 0 249 250 233
521 2 3 0 521 0 239 238 234
522 2 3 0 522 0 235 237 555
523 2 3 0 523 0 236 237 235
524 2 3 0 524 0 450 235 555
525 2 3 0 525 0 268 235 450
526 2 3 0 526 0 238 237 236
527 2 3 0 527 0 238 566 237
528 2 3 0 528 0 239 566 238
529 2 3 0 529 0 568 566 239
530 2 3 0 530 0 568 239 589
531 2 3 0 531 0 247 248 240
532 2 3 0 532 0 243 245 241
533 2 3 0 533 0 244 243 242
534 2 3 0 534 0 244 245 243
535 2 3 0 535 0 257 256 244
536 2 3 0 536 0 256 245 244
537 2 3 0 537 0 255 246 245
538 2 3 0 538 0 256 255 245
539 2 3 0 539 0 252 251 249
540 2 3 0 540 0 251 250 249
541 2 3 0 541 0 253 252 249
542 2 3 0 542 0 250 619 589
543 2 3 0 543 0 251 619 250
544 2 3 0 544 0 251 621 620
545 2 3 0 545 0 251 620 619
546 2 3 0 546 0 252 621 251
547 2 3 0 547 0 253 254 252
548 2 3 0 548 0 258 254 253
549 2 3 0 549 0 289 257 288
550 2 3 0 550 0 288 257 283
551 2 3 0 551 0 264 324 260
552 2 3 0 552 0 293 291 260
553 2 3 0 553 0 285 263 260
554 2 3 0 554 0 324 293 260
555 2 3 0 555 0 263 264 260
556 2 3 0 556 0 291 285 260
557 2 3 0 557 0 128 120 282
558 2 3 0 558 0 128 282 114
559 2 3 0 559 0 114 282 93
560 2 3 0 560 0 266 263 261
561 2 3 0 561 0 277 266 261
562 2 3 0 562 0 263 285 261
563 2 3 0 563 0 285 286 261
564 2 3 0 564 0 286 277 261
565 2 3 0 565 0 436 311 262
566 2 3 0 566 0 311 280 262
567 2 3 0 567 0 454 436 262
568 2 3 0 568 0 281 454 262
569 2 3 0 569 0 280 281 262
570 2 3 0 570 0 266 265 263
571 2 3 0 571 0 265 264 263
572 2 3 0 572 0 264 314 313
573 2 3 0 573 0 265 314 264
574 2 3 0 574 0 324 264 313
575 2 3 0 575 0 272 314 265
576 2 3 0 576 0 267 272 265
577 2 3 0 577 0 266 267 265
578 2 3 0 578 0 271 267 266
579 2 3 0 579 0 277 271 266
580 2 3 0 580 0 275 276 267
581 2 3 0 581 0 276 272 267
582 2 3 0 582 0 271 275 267
583 2 3 0 583 0 274 270 268
584 2 3 0 584 0 125 282 166
585 2 3 0 585 0 271 277 269
586 2 3 0 586 0 277 278 269
587 2 3 0 587 0 273 271 269
588 2 3 0 588 0 274 273 270
589 2 3 0 589 0 273 275 271
590 2 3 0 590 0 276 319 272
591 2 3 0 591 0 272 318 314
592 2 3 0 592 0 272 319 318
593 2 3 0 593 0 274 275 273
594 2 3 0 594 0 303 275 274
595 2 3 0 595 0 303 276 275
596 2 3 0 596 0 276 280 319
597 2 3 0 597 0 303 280 276
598 2 3 0 598 0 286 283 277
599 2 3 0 599 0 283 278 277
600 2 3 0 600 0 289 295 279
601 2 3 0 601 0 303 281 280
602 2 3 0 602 0 319 280 311
603 2 3 0 603 0 456 454 281
604 2 3 0 604 0 166 282 124
605 2 3 0 605 0 124 282 120
606 2 3 0 606 0 282 125 93
607 2 3 0 607 0 286 288 283
608 2 3 0 608 0 296 292 284
609 2 3 0 609 0 287 291 284
610 2 3 0 610 0 292 287 284
611 2 3 0 611 0 291 294 284
612 2 3 0 612 0 290 296 284
613 2 3 0 613 0 294 290 284
614 2 3 0 614 0 291 287 285
615 2 3 0 615 0 287 286 285
616 2 3 0 616 0 287 288 286
617 2 3 0 617 0 292 288 287
618 2 3 0 618 0 292 289 288
619 2 3 0 619 0 292 295 289
620 2 3 0 620 0 294 300 290
621 2 3 0 621 0 298 296 290
622 2 3 0 622 0 300 301 290
623 2 3 0 623 0 301 298 290
624 2 3 0 624 0 293 294 291
625 2 3 0 625 0 296 295 292
626 2 3 0 626 0 336 294 293
627 2 3 0 627 0 334 336 293
628 2 3 0 628 0 334 293 324
629 2 3 0 629 0 336 300 294
630 2 3 0 630 0 296 297 295
631 2 3 0 631 0 298 297 296
632 2 3 0 632 0 301 299 298
633 2 3 0 633 0 302 301 300
634 2 3 0 634 0 302 300 337
635 2 3 0 635 0 337 300 336
636 2 3 0 636 0 338 302 337
637 2 3 0 637 0 436 444 304
638 2 3 0 638 0 339 311 304
639 2 3 0 639 0 444 305 304
640 2 3 0 640 0 311 436 304
641 2 3 0 641 0 305 339 304
642 2 3 0 642 0 444 435 305
643 2 3 0 643 0 435 434 305
644 2 3 0 644 0 434 316 305
645 2 3 0 645 0 316 339 305
646 2 3 0 646 0 449 309 447
647 2 3 0 647 0 447 309 446
648 2 3 0 648 0 446 309 421
649 2 3 0 649 0 329 308 306
650 2 3 0 650 0 330 329 306
651 2 3 0 651 0 315 317 307
652 2 3 0 652 0 341 315 307
653 2 3 0 653 0 317 312 307
654 2 3 0 654 0 329 327 308
655 2 3 0 655 0 340 310 432
656 2 3 0 656 0 432 310 419
657 2 3 0 657 0 340 325 310
658 2 3 0 658 0 339 319 311
659 2 3 0 659 0 317 316 312
660 2 3 0 660 0 341 320 313
661 2 3 0 661 0 315 341 313
662 2 3 0 662 0 314 315 313
663 2 3 0 663 0 320 324 313
664 2 3 0 664 0 318 315 314
665 2 3 0 665 0 318 317 315
666 2 3 0 666 0 317 339 316
667 2 3 0 667 0 318 339 317
668 2 3 0 668 0 319 339 318
669 2 3 0 669 0 322 333 320
670 2 3 0 670 0 334 324 320
671 2 3 0 671 0 333 334 320
672 2 3 0 672 0 341 322 320
673 2 3 0 673 0 323 332 321
674 2 3 0 674 0 332 330 321
675 2 3 0 675 0 331 333 322
676 2 3 0 676 0 328 331 322
677 2 3 0 677 0 337 335 323
678 2 3 0 678 0 335 332 323
679 2 3 0 679 0 338 337 323
680 2 3 0 680 0 340 326 325
681 2 3 0 681 0 329 328 327
682 2 3 0 682 0 329 331 328
683 2 3 0 683 0 330 331 329
684 2 3 0 684 0 332 331 330
685 2 3 0 685 0 332 333 331
686 2 3 0 686 0 335 333 332
687 2 3 0 687 0 335 334 333
688 2 3 0 688 0 335 336 334
689 2 3 0 689 0 337 336 335
690 2 3 0 690 0 343 349 342
691 2 3 0 691 0 349 351 342
692 2 3 0 692 0 351 346 342
693 2 3 0 693 0 340 138 378
694 2 3 0 694 0 136 153 378
695 2 3 0 695 0 138 136 378
696 2 3 0 696 0 344 349 343
697 2 3 0 697 0 530 344 343
698 2 3 0 698 0 532 530 343
699 2 3 0 699 0 529 344 528
700 2 3 0 700 0 348 344 529
701 2 3 0 701 0 348 349 344
702 2 3 0 702 0 344 530 528
703 2 3 0 703 0 368 380 345
704 2 3 0 704 0 352 353 346
705 2 3 0 705 0 353 407 346
706 2 3 0 706 0 351 352 346
707 2 3 0 707 0 350 348 347
708 2 3 0 708 0 350 349 348
709 2 3 0 709 0 350 351 349
710 2 3 0 710 0 359 351 350
711 2 3 0 711 0 359 352 351
712 2 3 0 712 0 358 353 352
713 2 3 0 713 0 359 360 352
714 2 3 0 714 0 360 358 352
715 2 3 0 715 0 353 354 407
716 2 3 0 716 0 357 354 353
717 2 3 0 717 0 358 357 353
718 2 3 0 718 0 355 410 354
719 2 3 0 719 0 354 408 407
720 2 3 0 720 0 354 410 408
721 2 3 0 721 0 357 355 354
722 2 3 0 722 0 356 365 355
723 2 3 0 723 0 355 417 410
724 2 3 0 724 0 357 356 355
725 2 3 0 725 0 365 417 355
726 2 3 0 726 0 364 366 356
727 2 3 0 727 0 357 363 356
728 2 3 0 728 0 366 365 356
729 2 3 0 729 0 363 364 356
730 2 3 0 730 0 358 363 357
731 2 3 0 731 0 362 363 358
732 2 3 0 732 0 360 362 358
733 2 3 0 733 0 361 362 360
734 2 3 0 734 0 380 363 362
735 2 3 0 735 0 380 364 363
736 2 3 0 736 0 327 326 378
737 2 3 0 737 0 308 327 378
738 2 3 0 738 0 380 368 364
739 2 3 0 739 0 417 365 381
740 2 3 0 740 0 366 379 365
741 2 3 0 741 0 365 379 381
742 2 3 0 742 0 80 81 373
743 2 3 0 743 0 326 340 378
744 2 3 0 744 0 81 61 373
745 2 3 0 745 0 378 153 308
746 2 3 0 746 0 373 179 80
747 2 3 0 747 0 373 60 49
748 2 3 0 748 0 374 370 367
749 2 3 0 749 0 379 370 382
750 2 3 0 750 0 370 371 382
751 2 3 0 751 0 374 371 370
752 2 3 0 752 0 374 411 371
753 2 3 0 753 0 371 392 382
754 2 3 0 754 0 371 411 392
755 2 3 0 755 0 372 432 422
756 2 3 0 756 0 375 377 372
757 2 3 0 757 0 373 49 179
758 2 3 0 758 0 413 411 374
759 2 3 0 759 0 376 377 375
760 2 3 0 760 0 379 382 381
761 2 3 0 761 0 382 389 381
762 2 3 0 762 0 389 417 381
763 2 3 0 763 0 392 389 382
764 2 3 0 764 0 457 468 450
765 2 3 0 765 0 303 274 468
766 2 3 0 766 0 281 303 468
767 2 3 0 767 0 274 268 468
768 2 3 0 768 0 412 428 383
769 2 3 0 769 0 428 421 383
770 2 3 0 770 0 421 414 383
771 2 3 0 771 0 414 391 383
772 2 3 0 772 0 391 412 383
773 2 3 0 773 0 418 387 384
774 2 3 0 774 0 395 418 384
775 2 3 0 775 0 399 395 384
776 2 3 0 776 0 386 398 384
777 2 3 0 777 0 387 386 384
778 2 3 0 778 0 398 399 384
779 2 3 0 779 0 398 386 385
780 2 3 0 780 0 397 385 449
781 2 3 0 781 0 387 414 386
782 2 3 0 782 0 390 391 387
783 2 3 0 783 0 418 390 387
784 2 3 0 784 0 391 414 387
785 2 3 0 785 0 418 409 388
786 2 3 0 786 0 417 389 388
787 2 3 0 787 0 409 417 388
788 2 3 0 788 0 390 418 388
789 2 3 0 789 0 389 390 388
790 2 3 0 790 0 392 390 389
791 2 3 0 791 0 392 391 390
792 2 3 0 792 0 392 411 391
793 2 3 0 793 0 411 412 391
794 2 3 0 794 0 474 396 393
795 2 3 0 795 0 397 470 393
796 2 3 0 796 0 393 470 471
797 2 3 0 797 0 474 393 471
798 2 3 0 798 0 408 409 394
799 2 3 0 799 0 409 395 394
800 2 3 0 800 0 400 416 394
801 2 3 0 801 0 416 408 394
802 2 3 0 802 0 395 400 394
803 2 3 0 803 0 399 400 395
804 2 3 0 804 0 409 418 395
805 2 3 0 805 0 476 402 396
806 2 3 0 806 0 402 415 396
807 2 3 0 807 0 474 476 396
808 2 3 0 808 0 463 470 397
809 2 3 0 809 0 463 397 449
810 2 3 0 810 0 415 399 398
811 2 3 0 811 0 401 400 399
812 2 3 0 812 0 415 401 399
813 2 3 0 813 0 368 369 403
814 2 3 0 814 0 415 402 401
815 2 3 0 815 0 403 366 364
816 2 3 0 816 0 369 376 403
817 2 3 0 817 0 61 60 373
818 2 3 0 818 0 368 403 364
819 2 3 0 819 0 406 405 404
820 2 3 0 820 0 406 416 405
821 2 3 0 821 0 407 408 406
822 2 3 0 822 0 408 416 406
823 2 3 0 823 0 410 409 408
824 2 3 0 824 0 410 417 409
825 2 3 0 825 0 413 412 411
826 2 3 0 826 0 413 429 412
827 2 3 0 827 0 412 429 428
828 2 3 0 828 0 413 431 429
829 2 3 0 829 0 422 432 419
830 2 3 0 830 0 428 424 420
831 2 3 0 831 0 446 421 420
832 2 3 0 832 0 426 446 420
833 2 3 0 833 0 421 428 420
834 2 3 0 834 0 424 426 420
835 2 3 0 835 0 468 268 450
836 2 3 0 836 0 441 427 423
837 2 3 0 837 0 427 425 423
838 2 3 0 838 0 425 431 423
839 2 3 0 839 0 238 236 433
840 2 3 0 840 0 234 238 433
841 2 3 0 841 0 429 425 424
842 2 3 0 842 0 425 430 424
843 2 3 0 843 0 428 429 424
844 2 3 0 844 0 430 426 424
845 2 3 0 845 0 429 431 425
846 2 3 0 846 0 427 430 425
847 2 3 0 847 0 430 445 426
848 2 3 0 848 0 441 440 427
849 2 3 0 849 0 440 430 427
850 2 3 0 850 0 440 445 430
851 2 3 0 851 0 433 236 230
852 2 3 0 852 0 259 229 433
853 2 3 0 853 0 259 433 218
854 2 3 0 854 0 433 230 218
855 2 3 0 855 0 234 433 229
856 2 3 0 856 0 444 438 435
857 2 3 0 857 0 438 439 435
858 2 3 0 858 0 437 444 436
859 2 3 0 859 0 454 437 436
860 2 3 0 860 0 454 455 437
861 2 3 0 861 0 438 444 437
862 2 3 0 862 0 455 451 437
863 2 3 0 863 0 451 442 437
864 2 3 0 864 0 442 438 437
865 2 3 0 865 0 442 439 438
866 2 3 0 866 0 443 442 451
867 2 3 0 867 0 452 443 451
868 2 3 0 868 0 468 456 281
869 2 3 0 869 0 457 456 468
870 2 3 0 870 0 448 449 447
871 2 3 0 871 0 467 463 448
872 2 3 0 872 0 463 449 448
873 2 3 0 873 0 458 450 555
874 2 3 0 874 0 458 457 450
875 2 3 0 875 0 453 452 451
876 2 3 0 876 0 455 453 451
877 2 3 0 877 0 453 469 452
878 2 3 0 878 0 462 469 453
879 2 3 0 879 0 455 459 453
880 2 3 0 880 0 459 462 453
881 2 3 0 881 0 456 455 454
882 2 3 0 882 0 456 459 455
883 2 3 0 883 0 457 459 456
884 2 3 0 884 0 460 459 457
885 2 3 0 885 0 458 460 457
886 2 3 0 886 0 565 460 458
887 2 3 0 887 0 460 462 459
888 2 3 0 888 0 461 460 565
889 2 3 0 889 0 461 462 460
890 2 3 0 890 0 461 565 564
891 2 3 0 891 0 467 464 463
892 2 3 0 892 0 464 470 463
893 2 3 0 893 0 465 572 464
894 2 3 0 894 0 470 464 558
895 2 3 0 895 0 464 572 558
896 2 3 0 896 0 467 465 464
897 2 3 0 897 0 467 466 465
898 2 3 0 898 0 470 473 471
899 2 3 0 899 0 470 558 473
900 2 3 0 900 0 472 474 471
901 2 3 0 901 0 473 472 471
902 2 3 0 902 0 473 488 472
903 2 3 0 903 0 488 478 472
904 2 3 0 904 0 478 477 472
905 2 3 0 905 0 477 474 472
906 2 3 0 906 0 557 488 473
907 2 3 0 907 0 558 557 473
908 2 3 0 908 0 477 475 474
909 2 3 0 909 0 475 476 474
910 2 3 0 910 0 479 481 537
911 2 3 0 911 0 480 482 479
912 2 3 0 912 0 482 481 479
913 2 3 0 913 0 514 482 480
914 2 3 0 914 0 482 492 481
915 2 3 0 915 0 481 492 538
916 2 3 0 916 0 481 538 536
917 2 3 0 917 0 537 481 536
918 2 3 0 918 0 514 483 482
919 2 3 0 919 0 483 492 482
920 2 3 0 920 0 494 492 483
921 2 3 0 921 0 514 484 483
922 2 3 0 922 0 487 494 483
923 2 3 0 923 0 484 487 483
924 2 3 0 924 0 514 486 484
925 2 3 0 925 0 490 487 484
926 2 3 0 926 0 486 490 484
927 2 3 0 927 0 540 554 485
928 2 3 0 928 0 493 485 519
929 2 3 0 929 0 493 498 485
930 2 3 0 930 0 498 499 485
931 2 3 0 931 0 485 554 519
932 2 3 0 932 0 499 540 485
933 2 3 0 933 0 561 601 486
934 2 3 0 934 0 601 490 486
935 2 3 0 935 0 514 489 486
936 2 3 0 936 0 489 561 486
937 2 3 0 937 0 490 502 487
938 2 3 0 938 0 502 495 487
939 2 3 0 939 0 495 494 487
940 2 3 0 940 0 570 561 489
941 2 3 0 941 0 602 502 490
942 2 3 0 942 0 601 602 490
943 2 3 0 943 0 491 496 539
944 2 3 0 944 0 497 491 541
945 2 3 0 945 0 512 496 491
946 2 3 0 946 0 497 507 491
947 2 3 0 947 0 541 491 539
948 2 3 0 948 0 507 512 491
949 2 3 0 949 0 494 493 492
950 2 3 0 950 0 492 493 538
951 2 3 0 951 0 494 498 493
952 2 3 0 952 0 538 493 519
953 2 3 0 953 0 495 498 494
954 2 3 0 954 0 502 503 495
955 2 3 0 955 0 503 500 495
956 2 3 0 956 0 500 498 495
957 2 3 0 957 0 501 507 497
958 2 3 0 958 0 499 501 497
959 2 3 0 959 0 497 541 540
960 2 3 0 960 0 499 497 540
961 2 3 0 961 0 500 499 498
962 2 3 0 962 0 500 501 499
963 2 3 0 963 0 503 505 500
964 2 3 0 964 0 505 501 500
965 2 3 0 965 0 505 508 501
966 2 3 0 966 0 508 507 501
967 2 3 0 967 0 614 503 502
968 2 3 0 968 0 614 502 602
969 2 3 0 969 0 504 505 503
970 2 3 0 970 0 504 503 614
971 2 3 0 971 0 504 614 613
972 2 3 0 972 0 506 504 604
973 2 3 0 973 0 504 613 604
974 2 3 0 974 0 506 505 504
975 2 3 0 975 0 506 508 505
976 2 3 0 976 0 509 506 584
977 2 3 0 977 0 506 604 584
978 2 3 0 978 0 509 508 506
979 2 3 0 979 0 511 512 507
980 2 3 0 980 0 508 511 507
981 2 3 0 981 0 509 511 508
982 2 3 0 982 0 587 509 584
983 2 3 0 983 0 510 511 509
984 2 3 0 984 0 510 509 587
985 2 3 0 985 0 513 511 510
986 2 3 0 986 0 624 510 587
987 2 3 0 987 0 513 512 511
988 2 3 0 988 0 526 520 515
989 2 3 0 989 0 520 547 515
990 2 3 0 990 0 521 526 515
991 2 3 0 991 0 527 521 515
992 2 3 0 992 0 547 517 515
993 2 3 0 993 0 517 527 515
994 2 3 0 994 0 541 545 516
995 2 3 0 995 0 540 541 516
996 2 3 0 996 0 523 554 516
997 2 3 0 997 0 545 522 516
998 2 3 0 998 0 554 540 516
999 2 3 0 999 0 522 523 516
1000 2 3 0 1000 0 547 544 517
1001 2 3 0 1001 0 553 527 517
1002 2 3 0 1002 0 519 523 518
1003 2 3 0 1003 0 538 519 518
1004 2 3 0 1004 0 536 538 518
1005 2 3 0 1005 0 625 606 524
1006 2 3 0 1006 0 535 536 518
1007 2 3 0 1007 0 554 523 519
1008 2 3 0 1008 0 526 525 520
1009 2 3 0 1009 0 549 547 520
1010 2 3 0 1010 0 525 542 520
1011 2 3 0 1011 0 542 549 520
1012 2 3 0 1012 0 530 531 521
1013 2 3 0 1013 0 527 530 521
1014 2 3 0 1014 0 531 526 521
1015 2 3 0 1015 0 543 542 522
1016 2 3 0 1016 0 376 607 403
1017 2 3 0 1017 0 545 543 522
1018 2 3 0 1018 0 615 524 606
1019 2 3 0 1019 0 590 625 524
1020 2 3 0 1020 0 611 590 524
1021 2 3 0 1021 0 526 552 525
1022 2 3 0 1022 0 552 535 525
1023 2 3 0 1023 0 531 552 526
1024 2 3 0 1024 0 553 528 527
1025 2 3 0 1025 0 528 530 527
1026 2 3 0 1026 0 553 529 528
1027 2 3 0 1027 0 532 531 530
1028 2 3 0 1028 0 532 533 531
1029 2 3 0 1029 0 533 552 531
1030 2 3 0 1030 0 534 533 532
1031 2 3 0 1031 0 546 541 539
1032 2 3 0 1032 0 546 545 541
1033 2 3 0 1033 0 543 549 542
1034 2 3 0 1034 0 550 549 543
1035 2 3 0 1035 0 548 550 543
1036 2 3 0 1036 0 545 548 543
1037 2 3 0 1037 0 547 551 544
1038 2 3 0 1038 0 546 548 545
1039 2 3 0 1039 0 549 551 547
1040 2 3 0 1040 0 550 551 549
1041 2 3 0 1041 0 557 558 556
1042 2 3 0 1042 0 558 572 556
1043 2 3 0 1043 0 574 563 559
1044 2 3 0 1044 0 559 563 581
1045 2 3 0 1045 0 594 559 581
1046 2 3 0 1046 0 594 573 559
1047 2 3 0 1047 0 569 580 560
1048 2 3 0 1048 0 580 578 560
1049 2 3 0 1049 0 567 569 560
1050 2 3 0 1050 0 562 567 560
1051 2 3 0 1051 0 571 597 561
1052 2 3 0 1052 0 570 571 561
1053 2 3 0 1053 0 597 601 561
1054 2 3 0 1054 0 564 565 562
1055 2 3 0 1055 0 563 592 581
1056 2 3 0 1056 0 577 575 563
1057 2 3 0 1057 0 575 592 563
1058 2 3 0 1058 0 574 577 563
1059 2 3 0 1059 0 568 567 566
1060 2 3 0 1060 0 568 569 567
1061 2 3 0 1061 0 599 568 589
1062 2 3 0 1062 0 599 569 568
1063 2 3 0 1063 0 598 580 569
1064 2 3 0 1064 0 599 598 569
1065 2 3 0 1065 0 576 597 571
1066 2 3 0 1066 0 594 576 573
1067 2 3 0 1067 0 579 595 575
1068 2 3 0 1068 0 575 593 592
1069 2 3 0 1069 0 577 579 575
1070 2 3 0 1070 0 595 593 575
1071 2 3 0 1071 0 608 597 576
1072 2 3 0 1072 0 608 576 594
1073 2 3 0 1073 0 580 579 578
1074 2 3 0 1074 0 580 595 579
1075 2 3 0 1075 0 598 595 580
1076 2 3 0 1076 0 591 594 581
1077 2 3 0 1077 0 592 583 581
1078 2 3 0 1078 0 583 591 581
1079 2 3 0 1079 0 466 467 582
1080 2 3 0 1080 0 448 447 582
1081 2 3 0 1081 0 625 590 583
1082 2 3 0 1082 0 590 591 583
1083 2 3 0 1083 0 592 625 583
1084 2 3 0 1084 0 604 603 584
1085 2 3 0 1085 0 603 587 584
1086 2 3 0 1086 0 616 615 585
1087 2 3 0 1087 0 606 618 585
1088 2 3 0 1088 0 615 606 585
1089 2 3 0 1089 0 618 588 585
1090 2 3 0 1090 0 588 616 585
1091 2 3 0 1091 0 605 606 586
1092 2 3 0 1092 0 593 596 586
1093 2 3 0 1093 0 625 593 586
1094 2 3 0 1094 0 596 605 586
1095 2 3 0 1095 0 606 625 586
1096 2 3 0 1096 0 623 624 587
1097 2 3 0 1097 0 603 623 587
1098 2 3 0 1098 0 618 621 588
1099 2 3 0 1099 0 619 599 589
1100 2 3 0 1100 0 610 591 590
1101 2 3 0 1101 0 611 610 590
1102 2 3 0 1102 0 610 608 591
1103 2 3 0 1103 0 608 594 591
1104 2 3 0 1104 0 593 625 592
1105 2 3 0 1105 0 607 379 366
1106 2 3 0 1106 0 370 379 607
1107 2 3 0 1107 0 467 448 582
1108 2 3 0 1108 0 403 607 366
1109 2 3 0 1109 0 595 596 593
1110 2 3 0 1110 0 598 596 595
1111 2 3 0 1111 0 598 600 596
1112 2 3 0 1112 0 600 605 596
1113 2 3 0 1113 0 608 609 597
1114 2 3 0 1114 0 609 601 597
1115 2 3 0 1115 0 599 600 598
1116 2 3 0 1116 0 619 600 599
1117 2 3 0 1117 0 620 605 600
1118 2 3 0 1118 0 619 620 600
1119 2 3 0 1119 0 609 602 601
1120 2 3 0 1120 0 612 614 602
1121 2 3 0 1121 0 609 612 602
1122 2 3 0 1122 0 370 607 367
1123 2 3 0 1123 0 617 623 603
1124 2 3 0 1124 0 607 375 367
1125 2 3 0 1125 0 620 618 605
1126 2 3 0 1126 0 618 606 605
1127 2 3 0 1127 0 376 375 607
1128 2 3 0 1128 0 610 609 608
1129 2 3 0 1129 0 610 612 609
1130 2 3 0 1130 0 611 612 610
1131 2 3 0 1131 0 613 612 611
1132 2 3 0 1132 0 613 614 612
1133 2 3 0 1133 0 616 617 615
1134 2 3 0 1134 0 622 617 616
1135 2 3 0 1135 0 622 623 617
1136 2 3 0 1136 0 620 621 618
1137 2 3 0 1137 0 626 458 555
1138 2 3 0 1138 0 627 66 59
1139 2 3 0 1139 0 565 626 562
1140 2 3 0 1140 0 627 59 48
1141 2 3 0 1141 0 54 53 627
1142 2 3 0 1142 0 53 69 627
1143 2 3 0 1143 0 54 627 48
$EndElements
